# Blender 4.0.2
# www.blender.org
mtllib ring.mtl
o Ring
v -0.059197 0.176088 -1.084200
v -0.110934 0.190114 -1.077753
v -0.162403 0.203683 -1.068709
v -0.213482 0.216760 -1.057091
v -0.264046 0.229315 -1.042926
v -0.313974 0.241318 -1.026249
v -0.363145 0.252740 -1.007099
v -0.411442 0.263552 -0.985523
v -0.458747 0.273730 -0.961573
v -0.504948 0.283248 -0.935307
v -0.549931 0.292084 -0.906787
v -0.593590 0.300216 -0.876083
v -0.635819 0.307625 -0.843268
v -0.676517 0.314293 -0.808421
v -0.715584 0.320204 -0.771627
v -0.752928 0.325343 -0.732974
v -0.788457 0.329699 -0.692556
v -0.822088 0.333260 -0.650469
v -0.853738 0.336018 -0.606815
v -0.883331 0.337967 -0.561699
v -0.910796 0.339102 -0.515229
v -0.936066 0.339420 -0.467519
v -0.959082 0.338920 -0.418682
v -0.979787 0.337603 -0.368837
v -0.998132 0.335474 -0.318103
v -1.014072 0.332536 -0.266603
v -1.027570 0.328797 -0.214460
v -1.038591 0.324266 -0.161801
v -1.047111 0.318953 -0.108752
v -1.053108 0.312873 -0.055441
v -1.056568 0.306038 -0.001997
v -1.057483 0.298467 0.051453
v -1.055850 0.290176 0.104778
v -1.051674 0.281186 0.157851
v -1.044963 0.271519 0.210544
v -1.035736 0.261198 0.262729
v -1.024013 0.250247 0.314282
v -1.009824 0.238694 0.365077
v -0.993201 0.226565 0.414993
v -0.974186 0.213891 0.463909
v -0.952824 0.200701 0.511708
v -0.929167 0.187028 0.558273
v -0.903271 0.172905 0.603494
v -0.875199 0.158365 0.647261
v -0.845019 0.143443 0.689469
v -0.812803 0.128176 0.730015
v -0.778629 0.112600 0.768803
v -0.742579 0.096753 0.805739
v -0.704740 0.080672 0.840734
v -0.665204 0.064398 0.873703
v -0.624065 0.047968 0.904568
v -0.581422 0.031422 0.933253
v -0.537379 0.014801 0.959690
v -0.492041 -0.001856 0.983815
v -0.445518 -0.018508 1.005570
v -0.397921 -0.035115 1.024903
v -0.349366 -0.051639 1.041766
v -0.299970 -0.068037 1.056120
v -0.249850 -0.084272 1.067929
v -0.199129 -0.100304 1.077166
v -0.147928 -0.116094 1.083808
v -0.096371 -0.131604 1.087839
v -0.044581 -0.146798 1.089249
v 0.007316 -0.161637 1.088035
v 0.059195 -0.176088 1.084200
v 0.110932 -0.190114 1.077753
v 0.162401 -0.203682 1.068709
v 0.213480 -0.216760 1.057091
v 0.264044 -0.229315 1.042926
v 0.313971 -0.241318 1.026249
v 0.363143 -0.252739 1.007100
v 0.411440 -0.263552 0.985524
v 0.458745 -0.273729 0.961574
v 0.504945 -0.283248 0.935308
v 0.549929 -0.292084 0.906788
v 0.593588 -0.300216 0.876084
v 0.635817 -0.307625 0.843270
v 0.676514 -0.314293 0.808423
v 0.715582 -0.320203 0.771630
v 0.752925 -0.325343 0.732977
v 0.788455 -0.329698 0.692559
v 0.822085 -0.333260 0.650472
v 0.853736 -0.336018 0.606818
v 0.883329 -0.337967 0.561702
v 0.910794 -0.339102 0.515232
v 0.936065 -0.339420 0.467522
v 0.959081 -0.338920 0.418685
v 0.979786 -0.337604 0.368840
v 0.998131 -0.335474 0.318106
v 1.014072 -0.332536 0.266605
v 1.027569 -0.328797 0.214463
v 1.038591 -0.324266 0.161804
v 1.047111 -0.318954 0.108755
v 1.053108 -0.312873 0.055443
v 1.056568 -0.306039 0.001999
v 1.057483 -0.298467 -0.051451
v 1.055850 -0.290176 -0.104776
v 1.051674 -0.281186 -0.157849
v 1.044964 -0.271519 -0.210542
v 1.035736 -0.261198 -0.262728
v 1.024014 -0.250247 -0.314280
v 1.009824 -0.238694 -0.365076
v 0.993202 -0.226566 -0.414992
v 0.974187 -0.213891 -0.463908
v 0.952825 -0.200702 -0.511707
v 0.929167 -0.187029 -0.558273
v 0.903271 -0.172905 -0.603494
v 0.875199 -0.158365 -0.647261
v 0.845019 -0.143443 -0.689469
v 0.812803 -0.128176 -0.730016
v 0.778629 -0.112600 -0.768804
v 0.742579 -0.096752 -0.805740
v 0.704740 -0.080672 -0.840734
v 0.665203 -0.064397 -0.873704
v 0.624063 -0.047967 -0.904569
v 0.581421 -0.031422 -0.933254
v 0.537377 -0.014801 -0.959691
v 0.492039 0.001856 -0.983816
v 0.445516 0.018509 -1.005571
v 0.397919 0.035116 -1.024904
v 0.349364 0.051640 -1.041767
v 0.299966 0.068038 -1.056121
v 0.249847 0.084273 -1.067930
v 0.199125 0.100305 -1.077167
v 0.147924 0.116095 -1.083808
v 0.096366 0.131606 -1.087839
v 0.044576 0.146799 -1.089249
v -0.007321 0.161639 -1.088035
v -0.112358 0.328937 -1.992492
v -0.207182 0.354644 -1.980676
v -0.301516 0.379512 -1.964101
v -0.395132 0.403480 -1.942807
v -0.487807 0.426492 -1.916845
v -0.579315 0.448490 -1.886279
v -0.669437 0.469424 -1.851182
v -0.757955 0.489241 -1.811637
v -0.844657 0.507895 -1.767742
v -0.929333 0.525340 -1.719600
v -1.011780 0.541534 -1.667329
v -1.091798 0.556439 -1.611053
v -1.169196 0.570018 -1.550910
v -1.243786 0.582239 -1.487043
v -1.315390 0.593073 -1.419607
v -1.383833 0.602492 -1.348764
v -1.448952 0.610475 -1.274684
v -1.510590 0.617002 -1.197547
v -1.568598 0.622058 -1.117537
v -1.622836 0.625630 -1.034848
v -1.673174 0.627709 -0.949679
v -1.719491 0.628292 -0.862236
v -1.761674 0.627375 -0.772727
v -1.799623 0.624963 -0.681370
v -1.833245 0.621059 -0.588385
v -1.862461 0.615675 -0.493995
v -1.887198 0.608822 -0.398428
v -1.907399 0.600517 -0.301914
v -1.923014 0.590781 -0.204685
v -1.934006 0.579636 -0.106976
v -1.940347 0.567110 -0.009023
v -1.942024 0.553232 0.088940
v -1.939031 0.538037 0.186675
v -1.931376 0.521561 0.283947
v -1.919078 0.503843 0.380523
v -1.902166 0.484926 0.476169
v -1.880681 0.464855 0.570654
v -1.854674 0.443680 0.663753
v -1.824208 0.421451 0.755239
v -1.789357 0.398222 0.844893
v -1.750205 0.374048 0.932498
v -1.706845 0.348988 1.017844
v -1.659383 0.323102 1.100725
v -1.607933 0.296453 1.180941
v -1.552619 0.269104 1.258300
v -1.493573 0.241122 1.332614
v -1.430938 0.212575 1.403705
v -1.364866 0.183530 1.471401
v -1.295515 0.154057 1.535539
v -1.223052 0.124229 1.595966
v -1.147652 0.094116 1.652534
v -1.069496 0.063792 1.705109
v -0.988773 0.033329 1.753563
v -0.905678 0.002800 1.797780
v -0.820410 -0.027720 1.837653
v -0.733175 -0.058159 1.873085
v -0.644183 -0.088443 1.903993
v -0.553648 -0.118498 1.930300
v -0.461789 -0.148254 1.951945
v -0.368826 -0.177637 1.968874
v -0.274985 -0.206577 1.981047
v -0.180490 -0.235005 1.988435
v -0.085570 -0.262851 1.991019
v 0.009547 -0.290050 1.988795
v 0.104632 -0.316534 1.981765
v 0.199455 -0.342241 1.969949
v 0.293789 -0.367109 1.953374
v 0.387405 -0.391078 1.932081
v 0.480079 -0.414089 1.906120
v 0.571588 -0.436088 1.875553
v 0.661709 -0.457021 1.840456
v 0.750228 -0.476839 1.800912
v 0.836929 -0.495492 1.757017
v 0.921606 -0.512938 1.708876
v 1.004052 -0.529132 1.656605
v 1.084071 -0.544037 1.600330
v 1.161468 -0.557616 1.540187
v 1.236059 -0.569837 1.476321
v 1.307662 -0.580670 1.408885
v 1.376105 -0.590090 1.338042
v 1.441225 -0.598073 1.263963
v 1.502862 -0.604600 1.186826
v 1.560871 -0.609656 1.106816
v 1.615109 -0.613228 1.024127
v 1.665448 -0.615308 0.938958
v 1.711765 -0.615890 0.851514
v 1.753949 -0.614974 0.762006
v 1.791898 -0.612561 0.670649
v 1.825521 -0.608658 0.577663
v 1.854736 -0.603274 0.483273
v 1.879474 -0.596421 0.387706
v 1.899675 -0.588116 0.291191
v 1.915291 -0.578380 0.193963
v 1.926282 -0.567235 0.096254
v 1.932624 -0.554709 -0.001700
v 1.934301 -0.540832 -0.099663
v 1.931309 -0.525636 -0.197398
v 1.923654 -0.509160 -0.294671
v 1.911356 -0.491442 -0.391246
v 1.894443 -0.472525 -0.486893
v 1.872958 -0.452455 -0.581379
v 1.846951 -0.431279 -0.674477
v 1.816486 -0.409050 -0.765964
v 1.781635 -0.385821 -0.855618
v 1.742482 -0.361647 -0.943223
v 1.699123 -0.336587 -1.028570
v 1.651661 -0.310701 -1.111451
v 1.600210 -0.284051 -1.191668
v 1.544895 -0.256703 -1.269026
v 1.485849 -0.228721 -1.343341
v 1.423215 -0.200173 -1.414432
v 1.357142 -0.171128 -1.482129
v 1.287790 -0.141655 -1.546267
v 1.215327 -0.111827 -1.606694
v 1.139926 -0.081714 -1.663263
v 1.061770 -0.051389 -1.715838
v 0.981047 -0.020926 -1.764292
v 0.897951 0.009603 -1.808509
v 0.812683 0.040123 -1.848381
v 0.725447 0.070562 -1.883814
v 0.636454 0.100846 -1.914721
v 0.545919 0.130902 -1.941029
v 0.454059 0.160657 -1.962673
v 0.361096 0.190040 -1.979602
v 0.267254 0.218981 -1.991775
v 0.172759 0.247408 -1.999162
v 0.077838 0.275255 -2.001747
v -0.017279 0.302454 -1.999521
vn 0.2787 0.9498 0.1419
vn 0.2786 0.9499 0.1421
vn 0.2740 0.9509 0.1437
vn 0.2738 0.9510 0.1437
vn 0.2738 0.9522 0.1353
vn 0.2740 0.9522 0.1353
vn 0.2788 0.9498 0.1417
vn 0.2742 0.9509 0.1438
vn 0.2736 0.9523 0.1354
vn 0.2789 0.9498 0.1415
vn 0.2744 0.9508 0.1438
vn 0.2734 0.9523 0.1355
vn 0.2790 0.9498 0.1413
vn 0.2747 0.9507 0.1438
vn 0.2732 0.9524 0.1356
vn 0.2791 0.9498 0.1411
vn 0.2749 0.9507 0.1438
vn 0.2730 0.9524 0.1357
vn 0.2792 0.9498 0.1409
vn 0.2751 0.9506 0.1438
vn 0.2728 0.9524 0.1359
vn 0.2793 0.9498 0.1407
vn 0.2753 0.9505 0.1438
vn 0.2727 0.9525 0.1360
vn 0.2793 0.9499 0.1405
vn 0.2755 0.9505 0.1438
vn 0.2725 0.9525 0.1361
vn 0.2794 0.9499 0.1403
vn 0.2723 0.9525 0.1363
vn 0.2794 0.9499 0.1401
vn 0.2722 0.9525 0.1365
vn 0.2795 0.9499 0.1399
vn 0.2720 0.9525 0.1366
vn 0.2795 0.9499 0.1397
vn 0.2719 0.9526 0.1368
vn 0.2795 0.9500 0.1395
vn 0.2718 0.9526 0.1370
vn 0.2795 0.9500 0.1392
vn 0.2795 0.9500 0.1393
vn 0.2716 0.9526 0.1372
vn 0.2795 0.9500 0.1390
vn 0.2715 0.9526 0.1374
vn 0.2795 0.9501 0.1388
vn 0.2714 0.9526 0.1375
vn 0.2795 0.9501 0.1386
vn 0.2713 0.9526 0.1377
vn 0.2794 0.9501 0.1384
vn 0.2712 0.9526 0.1379
vn 0.2712 0.9526 0.1380
vn 0.2794 0.9502 0.1382
vn 0.2712 0.9526 0.1382
vn 0.2793 0.9502 0.1380
vn 0.2711 0.9526 0.1384
vn 0.2793 0.9503 0.1378
vn 0.2711 0.9525 0.1386
vn 0.2792 0.9503 0.1376
vn 0.2710 0.9525 0.1388
vn 0.2791 0.9504 0.1374
vn 0.2710 0.9525 0.1390
vn 0.2790 0.9504 0.1372
vn 0.2710 0.9525 0.1392
vn 0.2789 0.9505 0.1370
vn 0.2709 0.9524 0.1394
vn 0.2788 0.9506 0.1368
vn 0.2709 0.9524 0.1397
vn 0.2787 0.9506 0.1367
vn 0.2709 0.9524 0.1399
vn 0.2785 0.9507 0.1365
vn 0.2710 0.9523 0.1401
vn 0.2784 0.9507 0.1363
vn 0.2710 0.9523 0.1403
vn 0.2783 0.9508 0.1362
vn 0.2710 0.9523 0.1405
vn 0.2781 0.9509 0.1360
vn 0.2711 0.9522 0.1407
vn 0.2780 0.9509 0.1359
vn 0.2711 0.9522 0.1409
vn 0.2778 0.9510 0.1358
vn 0.2712 0.9521 0.1411
vn 0.2776 0.9511 0.1357
vn 0.2713 0.9521 0.1413
vn 0.2774 0.9511 0.1356
vn 0.2757 0.9504 0.1438
vn 0.2714 0.9520 0.1415
vn 0.2773 0.9512 0.1355
vn 0.2759 0.9504 0.1438
vn 0.2715 0.9520 0.1417
vn 0.2771 0.9513 0.1354
vn 0.2761 0.9503 0.1437
vn 0.2716 0.9519 0.1419
vn 0.2769 0.9513 0.1353
vn 0.2763 0.9503 0.1437
vn 0.2717 0.9518 0.1421
vn 0.2767 0.9514 0.1352
vn 0.2765 0.9502 0.1436
vn 0.2718 0.9518 0.1423
vn 0.2765 0.9515 0.1352
vn 0.2767 0.9502 0.1435
vn 0.2720 0.9517 0.1424
vn 0.2763 0.9515 0.1351
vn 0.2769 0.9501 0.1434
vn 0.2721 0.9516 0.1426
vn 0.2761 0.9516 0.1351
vn 0.2771 0.9501 0.1433
vn 0.2722 0.9516 0.1427
vn 0.2759 0.9517 0.1350
vn 0.2773 0.9501 0.1432
vn 0.2724 0.9515 0.1429
vn 0.2756 0.9517 0.1350
vn 0.2775 0.9500 0.1431
vn 0.2726 0.9515 0.1430
vn 0.2754 0.9518 0.1350
vn 0.2776 0.9500 0.1430
vn 0.2727 0.9514 0.1431
vn 0.2752 0.9519 0.1350
vn 0.2778 0.9500 0.1428
vn 0.2729 0.9513 0.1432
vn 0.2750 0.9519 0.1350
vn 0.2780 0.9499 0.1427
vn 0.2731 0.9513 0.1433
vn 0.2748 0.9520 0.1351
vn 0.2781 0.9499 0.1426
vn 0.2733 0.9512 0.1434
vn 0.2746 0.9520 0.1351
vn 0.2783 0.9499 0.1424
vn 0.2735 0.9511 0.1435
vn 0.2744 0.9521 0.1351
vn 0.2784 0.9499 0.1422
vn 0.2736 0.9511 0.1436
vn 0.2742 0.9521 0.1352
vt 0.114922 0.496078
vt 0.114922 0.503891
vt 0.884889 0.503891
vt 0.884889 0.496078
vt 0.114922 0.691410
vt 0.114922 0.699223
vt 0.884884 0.699223
vt 0.884884 0.691410
vt 0.114922 0.089786
vt 0.114922 0.097600
vt 0.884884 0.097600
vt 0.884884 0.089786
vt 0.114922 0.488264
vt 0.884889 0.488264
vt 0.114922 0.683597
vt 0.884884 0.683597
vt 0.114922 0.081973
vt 0.884884 0.081973
vt 0.114922 0.480451
vt 0.884889 0.480451
vt 0.114922 0.675783
vt 0.884884 0.675783
vt 0.114922 0.074160
vt 0.884884 0.074160
vt 0.114922 0.472638
vt 0.884889 0.472638
vt 0.114922 0.667970
vt 0.884884 0.667970
vt 0.114922 0.066346
vt 0.884884 0.066346
vt 0.114922 0.464824
vt 0.884889 0.464824
vt 0.114922 0.660156
vt 0.884884 0.660156
vt 0.114922 0.058534
vt 0.884884 0.058534
vt 0.114922 0.457011
vt 0.884889 0.457011
vt 0.114922 0.652343
vt 0.884889 0.652343
vt 0.114922 0.050721
vt 0.884884 0.050721
vt 0.114922 0.449198
vt 0.884889 0.449198
vt 0.114922 0.644530
vt 0.884889 0.644530
vt 0.114922 0.042907
vt 0.884884 0.042907
vt 0.114922 0.441384
vt 0.884889 0.441384
vt 0.114922 0.636717
vt 0.884889 0.636717
vt 0.114922 0.035094
vt 0.884884 0.035094
vt 0.114922 0.433571
vt 0.884889 0.433571
vt 0.114922 0.027281
vt 0.884884 0.027281
vt 0.114922 0.425758
vt 0.884889 0.425758
vt 0.114922 0.019468
vt 0.884884 0.019468
vt 0.114922 0.417944
vt 0.884889 0.417944
vt 0.114922 0.011654
vt 0.884884 0.011654
vt 0.114922 0.410131
vt 0.884889 0.410131
vt 0.114922 0.003841
vt 0.884884 0.003841
vt 0.114922 0.402318
vt 0.884889 0.402318
vt 0.114922 0.996125
vt 0.114922 1.003938
vt 0.884857 1.003938
vt 0.884857 0.996125
vt 0.114922 0.394505
vt 0.884889 0.394505
vt 0.114922 0.988313
vt 0.884857 0.988313
vt 0.114922 0.386691
vt 0.884889 0.386691
vt 0.114922 0.980499
vt 0.884861 0.980499
vt 0.114922 0.378878
vt 0.884884 0.378878
vt 0.114922 0.972686
vt 0.884861 0.972686
vt 0.114922 0.371065
vt 0.884884 0.371065
vt 0.114922 0.964873
vt 0.884861 0.964873
vt 0.114922 0.363251
vt 0.884884 0.363251
vt 0.114922 0.957060
vt 0.884861 0.957060
vt 0.114922 0.355438
vt 0.884884 0.355438
vt 0.114922 0.949247
vt 0.884866 0.949247
vt 0.114922 0.347625
vt 0.884884 0.347625
vt 0.114922 0.941434
vt 0.884866 0.941434
vt 0.114922 0.339811
vt 0.884884 0.339811
vt 0.114922 0.933621
vt 0.884866 0.933621
vt 0.114922 0.331998
vt 0.884884 0.331998
vt 0.114922 0.925808
vt 0.884866 0.925808
vt 0.114922 0.324185
vt 0.884884 0.324185
vt 0.114922 0.917994
vt 0.884866 0.917994
vt 0.114922 0.316371
vt 0.884884 0.316371
vt 0.114922 0.910182
vt 0.884871 0.910182
vt 0.114922 0.308558
vt 0.884884 0.308558
vt 0.114922 0.902368
vt 0.884871 0.902368
vt 0.114922 0.300745
vt 0.884884 0.300745
vt 0.114922 0.894555
vt 0.884871 0.894555
vt 0.114922 0.292931
vt 0.884884 0.292931
vt 0.114922 0.886742
vt 0.884871 0.886742
vt 0.114922 0.285118
vt 0.884884 0.285118
vt 0.114922 0.878928
vt 0.884871 0.878928
vt 0.114922 0.277305
vt 0.884884 0.277305
vt 0.114922 0.871116
vt 0.884871 0.871116
vt 0.114922 0.269491
vt 0.884884 0.269491
vt 0.114922 0.863302
vt 0.884875 0.863302
vt 0.114922 0.261678
vt 0.884884 0.261678
vt 0.114922 0.855489
vt 0.884875 0.855489
vt 0.114922 0.253865
vt 0.884884 0.253865
vt 0.114922 0.847676
vt 0.884875 0.847676
vt 0.114922 0.246051
vt 0.884884 0.246051
vt 0.114922 0.839862
vt 0.884875 0.839862
vt 0.114922 0.238238
vt 0.884884 0.238238
vt 0.114922 0.832049
vt 0.884875 0.832049
vt 0.114922 0.230425
vt 0.884884 0.230425
vt 0.114922 0.628904
vt 0.884889 0.628904
vt 0.114922 0.824236
vt 0.884875 0.824236
vt 0.114922 0.222612
vt 0.884884 0.222612
vt 0.114922 0.621090
vt 0.884889 0.621090
vt 0.114922 0.816422
vt 0.884875 0.816422
vt 0.114922 0.214799
vt 0.884884 0.214799
vt 0.114922 0.613277
vt 0.884889 0.613277
vt 0.114922 0.808609
vt 0.884880 0.808609
vt 0.114922 0.206985
vt 0.884884 0.206985
vt 0.114922 0.605464
vt 0.884889 0.605464
vt 0.114922 0.800796
vt 0.884880 0.800796
vt 0.114922 0.199172
vt 0.884884 0.199172
vt 0.114922 0.597651
vt 0.884889 0.597651
vt 0.114922 0.792983
vt 0.884880 0.792983
vt 0.114922 0.191359
vt 0.884884 0.191359
vt 0.114922 0.589837
vt 0.884889 0.589837
vt 0.114922 0.785169
vt 0.884880 0.785169
vt 0.114922 0.183545
vt 0.884884 0.183545
vt 0.114922 0.582024
vt 0.884889 0.582024
vt 0.114922 0.777356
vt 0.884880 0.777356
vt 0.114922 0.175732
vt 0.884884 0.175732
vt 0.114922 0.574211
vt 0.884889 0.574211
vt 0.114922 0.769543
vt 0.884880 0.769543
vt 0.114922 0.167919
vt 0.884884 0.167919
vt 0.114922 0.566397
vt 0.884889 0.566397
vt 0.114922 0.761729
vt 0.884880 0.761729
vt 0.114922 0.160105
vt 0.884884 0.160105
vt 0.114922 0.558584
vt 0.884889 0.558584
vt 0.114922 0.753916
vt 0.884880 0.753916
vt 0.114922 0.152292
vt 0.884884 0.152292
vt 0.114922 0.550771
vt 0.884889 0.550771
vt 0.114922 0.746103
vt 0.884884 0.746103
vt 0.114922 0.144479
vt 0.884884 0.144479
vt 0.114922 0.542957
vt 0.884889 0.542957
vt 0.114922 0.738289
vt 0.884884 0.738289
vt 0.114922 0.136666
vt 0.884884 0.136666
vt 0.114922 0.535144
vt 0.884889 0.535144
vt 0.114922 0.730476
vt 0.884884 0.730476
vt 0.114922 0.128852
vt 0.884884 0.128852
vt 0.114922 0.527331
vt 0.884889 0.527331
vt 0.114922 0.722663
vt 0.884884 0.722663
vt 0.114922 0.121039
vt 0.884884 0.121039
vt 0.114922 0.519518
vt 0.884889 0.519518
vt 0.114922 0.714850
vt 0.884884 0.714850
vt 0.114922 0.113226
vt 0.884884 0.113226
vt 0.114922 0.511704
vt 0.884889 0.511704
vt 0.114922 0.707036
vt 0.884884 0.707036
vt 0.114922 0.105413
vt 0.884884 0.105413
s 1
usemtl Ring
f 19/1/1 18/2/2 146/3/2 147/4/1
f 122/5/3 121/6/4 249/7/4 250/8/3
f 71/9/5 70/10/6 198/11/6 199/12/5
f 20/13/7 19/1/1 147/4/1 148/14/7
f 123/15/8 122/5/3 250/8/3 251/16/8
f 72/17/9 71/9/5 199/12/5 200/18/9
f 21/19/10 20/13/7 148/14/7 149/20/10
f 124/21/11 123/15/8 251/16/8 252/22/11
f 73/23/12 72/17/9 200/18/9 201/24/12
f 22/25/13 21/19/10 149/20/10 150/26/13
f 125/27/14 124/21/11 252/22/11 253/28/14
f 74/29/15 73/23/12 201/24/12 202/30/15
f 23/31/16 22/25/13 150/26/13 151/32/16
f 126/33/17 125/27/14 253/28/14 254/34/17
f 75/35/18 74/29/15 202/30/15 203/36/18
f 24/37/19 23/31/16 151/32/16 152/38/19
f 127/39/20 126/33/17 254/34/17 255/40/20
f 76/41/21 75/35/18 203/36/18 204/42/21
f 25/43/22 24/37/19 152/38/19 153/44/22
f 128/45/23 127/39/20 255/40/20 256/46/23
f 77/47/24 76/41/21 204/42/21 205/48/24
f 26/49/25 25/43/22 153/44/22 154/50/25
f 1/51/26 128/45/23 256/46/23 129/52/26
f 78/53/27 77/47/24 205/48/24 206/54/27
f 27/55/28 26/49/25 154/50/25 155/56/28
f 79/57/29 78/53/27 206/54/27 207/58/29
f 28/59/30 27/55/28 155/56/28 156/60/30
f 80/61/31 79/57/29 207/58/29 208/62/31
f 29/63/32 28/59/30 156/60/30 157/64/32
f 81/65/33 80/61/31 208/62/31 209/66/33
f 30/67/34 29/63/32 157/64/32 158/68/34
f 82/69/35 81/65/33 209/66/33 210/70/35
f 31/71/36 30/67/34 158/68/34 159/72/36
f 83/73/37 82/74/35 210/75/35 211/76/37
f 32/77/38 31/71/36 159/72/36 160/78/39
f 84/79/40 83/73/37 211/76/37 212/80/40
f 33/81/41 32/77/38 160/78/39 161/82/41
f 85/83/42 84/79/40 212/80/40 213/84/42
f 34/85/43 33/81/41 161/82/41 162/86/43
f 86/87/44 85/83/42 213/84/42 214/88/44
f 35/89/45 34/85/43 162/86/43 163/90/45
f 87/91/46 86/87/44 214/88/44 215/92/46
f 36/93/47 35/89/45 163/90/45 164/94/47
f 88/95/48 87/91/46 215/92/46 216/96/49
f 37/97/50 36/93/47 164/94/47 165/98/50
f 89/99/51 88/95/48 216/96/49 217/100/51
f 38/101/52 37/97/50 165/98/50 166/102/52
f 90/103/53 89/99/51 217/100/51 218/104/53
f 39/105/54 38/101/52 166/102/52 167/106/54
f 91/107/55 90/103/53 218/104/53 219/108/55
f 40/109/56 39/105/54 167/106/54 168/110/56
f 92/111/57 91/107/55 219/108/55 220/112/57
f 41/113/58 40/109/56 168/110/56 169/114/58
f 93/115/59 92/111/57 220/112/57 221/116/59
f 42/117/60 41/113/58 169/114/58 170/118/60
f 94/119/61 93/115/59 221/116/59 222/120/61
f 43/121/62 42/117/60 170/118/60 171/122/62
f 95/123/63 94/119/61 222/120/61 223/124/63
f 44/125/64 43/121/62 171/122/62 172/126/64
f 96/127/65 95/123/63 223/124/63 224/128/65
f 45/129/66 44/125/64 172/126/64 173/130/66
f 97/131/67 96/127/65 224/128/65 225/132/67
f 46/133/68 45/129/66 173/130/66 174/134/68
f 98/135/69 97/131/67 225/132/67 226/136/69
f 47/137/70 46/133/68 174/134/68 175/138/70
f 99/139/71 98/135/69 226/136/69 227/140/71
f 48/141/72 47/137/70 175/138/70 176/142/72
f 100/143/73 99/139/71 227/140/71 228/144/73
f 49/145/74 48/141/72 176/142/72 177/146/74
f 101/147/75 100/143/73 228/144/73 229/148/75
f 50/149/76 49/145/74 177/146/74 178/150/76
f 102/151/77 101/147/75 229/148/75 230/152/77
f 51/153/78 50/149/76 178/150/76 179/154/78
f 103/155/79 102/151/77 230/152/77 231/156/79
f 52/157/80 51/153/78 179/154/78 180/158/80
f 104/159/81 103/155/79 231/156/79 232/160/81
f 53/161/82 52/157/80 180/158/80 181/162/82
f 2/163/83 1/51/26 129/52/26 130/164/83
f 105/165/84 104/159/81 232/160/81 233/166/84
f 54/167/85 53/161/82 181/162/82 182/168/85
f 3/169/86 2/163/83 130/164/83 131/170/86
f 106/171/87 105/165/84 233/166/84 234/172/87
f 55/173/88 54/167/85 182/168/85 183/174/88
f 4/175/89 3/169/86 131/170/86 132/176/89
f 107/177/90 106/171/87 234/172/87 235/178/90
f 56/179/91 55/173/88 183/174/88 184/180/91
f 5/181/92 4/175/89 132/176/89 133/182/92
f 108/183/93 107/177/90 235/178/90 236/184/93
f 57/185/94 56/179/91 184/180/91 185/186/94
f 6/187/95 5/181/92 133/182/92 134/188/95
f 109/189/96 108/183/93 236/184/93 237/190/96
f 58/191/97 57/185/94 185/186/94 186/192/97
f 7/193/98 6/187/95 134/188/95 135/194/98
f 110/195/99 109/189/96 237/190/96 238/196/99
f 59/197/100 58/191/97 186/192/97 187/198/100
f 8/199/101 7/193/98 135/194/98 136/200/101
f 111/201/102 110/195/99 238/196/99 239/202/102
f 60/203/103 59/197/100 187/198/100 188/204/103
f 9/205/104 8/199/101 136/200/101 137/206/104
f 112/207/105 111/201/102 239/202/102 240/208/105
f 61/209/106 60/203/103 188/204/103 189/210/106
f 10/211/107 9/205/104 137/206/104 138/212/107
f 113/213/108 112/207/105 240/208/105 241/214/108
f 62/215/109 61/209/106 189/210/106 190/216/109
f 11/217/110 10/211/107 138/212/107 139/218/110
f 114/219/111 113/213/108 241/214/108 242/220/111
f 63/221/112 62/215/109 190/216/109 191/222/112
f 12/223/113 11/217/110 139/218/110 140/224/113
f 115/225/114 114/219/111 242/220/111 243/226/114
f 64/227/115 63/221/112 191/222/112 192/228/115
f 13/229/116 12/223/113 140/224/113 141/230/116
f 116/231/117 115/225/114 243/226/114 244/232/117
f 65/233/118 64/227/115 192/228/115 193/234/118
f 14/235/119 13/229/116 141/230/116 142/236/119
f 117/237/120 116/231/117 244/232/117 245/238/120
f 66/239/121 65/233/118 193/234/118 194/240/121
f 15/241/122 14/235/119 142/236/119 143/242/122
f 118/243/123 117/237/120 245/238/120 246/244/123
f 67/245/124 66/239/121 194/240/121 195/246/124
f 16/247/125 15/241/122 143/242/122 144/248/125
f 119/249/126 118/243/123 246/244/123 247/250/126
f 68/251/127 67/245/124 195/246/124 196/252/127
f 17/253/128 16/247/125 144/248/125 145/254/128
f 120/255/129 119/249/126 247/250/126 248/256/129
f 69/257/130 68/251/127 196/252/127 197/258/130
f 18/2/2 17/253/128 145/254/128 146/3/2
f 121/6/4 120/255/129 248/256/129 249/7/4
f 70/10/6 69/257/130 197/258/130 198/11/6
